<svg width="677.6px" height="184.4px" xmlns="http://www.w3.org/2000/svg" viewBox="-88.80000000000001 -17.200000000000003 677.6 184.4" style="background: rgba(0, 0, 0, 0);" preserveAspectRatio="xMidYMid"><defs><linearGradient id="editing-gradient-gradient" x1="0" x2="1" y1="0.5" y2="0.5" gradientUnits="objectBoundingBox"><stop offset="0" stop-color="#f0f"></stop><stop offset="1" stop-color="#0ff"></stop></linearGradient></defs><g><g transform="translate(5.914987564086914, 112.02499866485596)"><path d="M66.63 0L58.61 0L42.77-22.28L42.77-22.28Q40.09-21.98 37.22-21.98L37.22-21.98L18.61-21.98L18.61 0L11.29 0L11.29-69.30L37.22-69.30L37.22-69.30Q50.49-69.30 58.01-62.96L58.01-62.96L58.01-62.96Q65.54-56.63 65.54-45.54L65.54-45.54L65.54-45.54Q65.54-37.42 61.43-31.83L61.43-31.83L61.43-31.83Q57.32-26.24 49.70-23.76L49.70-23.76L66.63 0ZM37.03-28.21L37.03-28.21Q47.32-28.21 52.77-32.77L52.77-32.77L52.77-32.77Q58.21-37.32 58.21-45.54L58.21-45.54L58.21-45.54Q58.21-53.96 52.77-58.46L52.77-58.46L52.77-58.46Q47.32-62.96 37.03-62.96L37.03-62.96L18.61-62.96L18.61-28.21L37.03-28.21ZM99.59-52.47L99.59-52.47Q109.79-52.47 115.24-47.37L115.24-47.37L115.24-47.37Q120.68-42.27 120.68-32.27L120.68-32.27L120.68 0L113.95 0L113.95-8.12L113.95-8.12Q111.57-4.06 106.97-1.78L106.97-1.78L106.97-1.78Q102.37 0.49 96.03 0.49L96.03 0.49L96.03 0.49Q87.32 0.49 82.17-3.66L82.17-3.66L82.17-3.66Q77.02-7.82 77.02-14.65L77.02-14.65L77.02-14.65Q77.02-21.29 81.82-25.34L81.82-25.34L81.82-25.34Q86.63-29.40 97.12-29.40L97.12-29.40L113.65-29.40L113.65-32.57L113.65-32.57Q113.65-39.30 109.89-42.82L109.89-42.82L109.89-42.82Q106.13-46.33 98.90-46.33L98.90-46.33L98.90-46.33Q93.95-46.33 89.40-44.70L89.40-44.70L89.40-44.70Q84.84-43.07 81.58-40.19L81.58-40.19L78.41-45.44L78.41-45.44Q82.37-48.81 87.91-50.64L87.91-50.64L87.91-50.64Q93.46-52.47 99.59-52.47L99.59-52.47ZM97.12-5.05L97.12-5.05Q103.06-5.05 107.32-7.77L107.32-7.77L107.32-7.77Q111.57-10.49 113.65-15.64L113.65-15.64L113.65-24.16L97.32-24.16L97.32-24.16Q83.95-24.16 83.95-14.85L83.95-14.85L83.95-14.85Q83.95-10.30 87.42-7.67L87.42-7.67L87.42-7.67Q90.88-5.05 97.12-5.05L97.12-5.05ZM139.79 0L139.79-52.07L146.82-52.07L146.82 0L139.79 0ZM143.35-63.46L143.35-63.46Q141.17-63.46 139.69-64.94L139.69-64.94L139.69-64.94Q138.20-66.43 138.20-68.51L138.20-68.51L138.20-68.51Q138.20-70.49 139.69-71.97L139.69-71.97L139.69-71.97Q141.17-73.46 143.35-73.46L143.35-73.46L143.35-73.46Q145.53-73.46 147.01-72.02L147.01-72.02L147.01-72.02Q148.50-70.59 148.50-68.61L148.50-68.61L148.50-68.61Q148.50-66.43 147.01-64.94L147.01-64.94L147.01-64.94Q145.53-63.46 143.35-63.46L143.35-63.46ZM191.37-8.22L193.84-3.17L193.84-3.17Q191.86-1.39 188.94-0.45L188.94-0.45L188.94-0.45Q186.02 0.49 182.85 0.49L182.85 0.49L182.85 0.49Q175.53 0.49 171.57-3.47L171.57-3.47L171.57-3.47Q167.61-7.43 167.61-14.65L167.61-14.65L167.61-46.13L158.30-46.13L158.30-52.07L167.61-52.07L167.61-63.46L174.64-63.46L174.64-52.07L190.48-52.07L190.48-46.13L174.64-46.13L174.64-15.05L174.64-15.05Q174.64-10.40 176.96-7.97L176.96-7.97L176.96-7.97Q179.29-5.54 183.64-5.54L183.64-5.54L183.64-5.54Q185.82-5.54 187.85-6.24L187.85-6.24L187.85-6.24Q189.88-6.93 191.37-8.22L191.37-8.22ZM252.05-26.04L251.96-23.86L208.40-23.86L208.40-23.86Q208.99-15.74 214.63-10.74L214.63-10.74L214.63-10.74Q220.28-5.74 228.89-5.74L228.89-5.74L228.89-5.74Q233.74-5.74 237.80-7.47L237.80-7.47L237.80-7.47Q241.86-9.21 244.83-12.57L244.83-12.57L248.79-8.02L248.79-8.02Q245.32-3.86 240.12-1.68L240.12-1.68L240.12-1.68Q234.93 0.49 228.69 0.49L228.69 0.49L228.69 0.49Q220.67 0.49 214.48-2.92L214.48-2.92L214.48-2.92Q208.30-6.34 204.83-12.38L204.83-12.38L204.83-12.38Q201.37-18.41 201.37-26.04L201.37-26.04L201.37-26.04Q201.37-33.66 204.68-39.70L204.68-39.70L204.68-39.70Q208.00-45.74 213.79-49.10L213.79-49.10L213.79-49.10Q219.58-52.47 226.81-52.47L226.81-52.47L226.81-52.47Q234.04-52.47 239.78-49.10L239.78-49.10L239.78-49.10Q245.52-45.74 248.79-39.75L248.79-39.75L248.79-39.75Q252.05-33.76 252.05-26.04L252.05-26.04ZM226.81-46.43L226.81-46.43Q219.29-46.43 214.19-41.63L214.19-41.63L214.19-41.63Q209.09-36.83 208.40-29.11L208.40-29.11L245.32-29.11L245.32-29.11Q244.63-36.83 239.53-41.63L239.53-41.63L239.53-41.63Q234.43-46.43 226.81-46.43L226.81-46.43ZM280.37 0.49L280.37 0.49Q274.03 0.49 268.24-1.34L268.24-1.34L268.24-1.34Q262.45-3.17 259.18-5.94L259.18-5.94L262.35-11.48L262.35-11.48Q265.62-8.91 270.57-7.28L270.57-7.28L270.57-7.28Q275.52-5.64 280.86-5.64L280.86-5.64L280.86-5.64Q287.99-5.64 291.41-7.87L291.41-7.87L291.41-7.87Q294.82-10.10 294.82-14.16L294.82-14.16L294.82-14.16Q294.82-17.03 292.94-18.66L292.94-18.66L292.94-18.66Q291.06-20.30 288.19-21.14L288.19-21.14L288.19-21.14Q285.32-21.98 280.57-22.77L280.57-22.77L280.57-22.77Q274.23-23.96 270.37-25.20L270.37-25.20L270.37-25.20Q266.51-26.43 263.79-29.40L263.79-29.40L263.79-29.40Q261.06-32.37 261.06-37.62L261.06-37.62L261.06-37.62Q261.06-44.15 266.51-48.31L266.51-48.31L266.51-48.31Q271.95-52.47 281.66-52.47L281.66-52.47L281.66-52.47Q286.70-52.47 291.75-51.13L291.75-51.13L291.75-51.13Q296.80-49.80 300.07-47.62L300.07-47.62L297-41.98L297-41.98Q290.56-46.43 281.66-46.43L281.66-46.43L281.66-46.43Q274.92-46.43 271.51-44.05L271.51-44.05L271.51-44.05Q268.09-41.68 268.09-37.82L268.09-37.82L268.09-37.82Q268.09-34.85 270.02-33.07L270.02-33.07L270.02-33.07Q271.95-31.28 274.82-30.44L274.82-30.44L274.82-30.44Q277.69-29.60 282.74-28.71L282.74-28.71L282.74-28.71Q288.98-27.52 292.74-26.33L292.74-26.33L292.74-26.33Q296.50-25.15 299.18-22.28L299.18-22.28L299.18-22.28Q301.85-19.40 301.85-14.36L301.85-14.36L301.85-14.36Q301.85-7.52 296.16-3.51L296.16-3.51L296.16-3.51Q290.47 0.49 280.37 0.49L280.37 0.49ZM370.16 0.59L370.16 0.59Q356.70 0.59 349.17-7.13L349.17-7.13L349.17-7.13Q341.65-14.85 341.65-29.60L341.65-29.60L341.65-69.30L348.98-69.30L348.98-29.90L348.98-29.90Q348.98-17.82 354.42-11.88L354.42-11.88L354.42-11.88Q359.87-5.94 370.16-5.94L370.16-5.94L370.16-5.94Q380.56-5.94 386.00-11.88L386.00-11.88L386.00-11.88Q391.45-17.82 391.45-29.90L391.45-29.90L391.45-69.30L398.57-69.30L398.57-29.60L398.57-29.60Q398.57-14.85 391.10-7.13L391.10-7.13L391.10-7.13Q383.63 0.59 370.16 0.59L370.16 0.59ZM469.46-11.29L469.46-34.65L476.49-34.65L476.49-8.22L476.49-8.22Q471.64-3.96 465.00-1.68L465.00-1.68L465.00-1.68Q458.37 0.59 451.04 0.59L451.04 0.59L451.04 0.59Q440.65 0.59 432.33-3.96L432.33-3.96L432.33-3.96Q424.02-8.51 419.26-16.58L419.26-16.58L419.26-16.58Q414.51-24.65 414.51-34.65L414.51-34.65L414.51-34.65Q414.51-44.65 419.26-52.72L419.26-52.72L419.26-52.72Q424.02-60.79 432.33-65.34L432.33-65.34L432.33-65.34Q440.65-69.89 451.14-69.89L451.14-69.89L451.14-69.89Q459.06-69.89 465.70-67.37L465.70-67.37L465.70-67.37Q472.33-64.84 476.88-59.90L476.88-59.90L472.33-55.24L472.33-55.24Q464.11-63.36 451.44-63.36L451.44-63.36L451.44-63.36Q443.03-63.36 436.24-59.65L436.24-59.65L436.24-59.65Q429.46-55.94 425.60-49.35L425.60-49.35L425.60-49.35Q421.74-42.77 421.74-34.65L421.74-34.65L421.74-34.65Q421.74-26.53 425.60-20.00L425.60-20.00L425.60-20.00Q429.46-13.46 436.19-9.70L436.19-9.70L436.19-9.70Q442.93-5.94 451.34-5.94L451.34-5.94L451.34-5.94Q462.03-5.94 469.46-11.29L469.46-11.29Z" fill="url(#editing-gradient-gradient)"></path></g></g><style>text {
  font-size: 64px;
  font-family: Arial Black;
  dominant-baseline: central;
  text-anchor: middle;
}</style></svg>